<mxfile host="app.diagrams.net" modified="2024-02-12T03:56:35.793Z" agent="Mozilla/5.0 (Windows NT 10.0; Win64; x64) AppleWebKit/537.36 (KHTML, like Gecko) Chrome/121.0.0.0 Safari/537.36" etag="33ng8TmxC3kBjk1wDaJA" version="22.1.16" type="device">
  <diagram id="NvOZG2vShSz8olZ9ZYAW" name="Page-1">
    <mxGraphModel dx="1434" dy="746" grid="1" gridSize="10" guides="1" tooltips="1" connect="1" arrows="1" fold="1" page="1" pageScale="1" pageWidth="850" pageHeight="1100" math="0" shadow="0">
      <root>
        <mxCell id="0" />
        <mxCell id="1" parent="0" />
        <mxCell id="iij6jhZhm58iWWEAvTVf-4" style="edgeStyle=orthogonalEdgeStyle;rounded=0;orthogonalLoop=1;jettySize=auto;html=1;exitX=0.5;exitY=1;exitDx=0;exitDy=0;entryX=0.5;entryY=0;entryDx=0;entryDy=0;" edge="1" parent="1" source="iij6jhZhm58iWWEAvTVf-1" target="iij6jhZhm58iWWEAvTVf-3">
          <mxGeometry relative="1" as="geometry" />
        </mxCell>
        <mxCell id="iij6jhZhm58iWWEAvTVf-1" value="&lt;b&gt;&lt;font style=&quot;font-size: 16px;&quot;&gt;Identify the problem&lt;/font&gt;&lt;/b&gt;" style="rounded=0;whiteSpace=wrap;html=1;" vertex="1" parent="1">
          <mxGeometry x="315" y="40" width="220" height="60" as="geometry" />
        </mxCell>
        <mxCell id="iij6jhZhm58iWWEAvTVf-6" style="edgeStyle=orthogonalEdgeStyle;rounded=0;orthogonalLoop=1;jettySize=auto;html=1;exitX=0.5;exitY=1;exitDx=0;exitDy=0;entryX=0.5;entryY=0;entryDx=0;entryDy=0;" edge="1" parent="1" source="iij6jhZhm58iWWEAvTVf-3" target="iij6jhZhm58iWWEAvTVf-5">
          <mxGeometry relative="1" as="geometry" />
        </mxCell>
        <mxCell id="iij6jhZhm58iWWEAvTVf-3" value="&lt;b&gt;&lt;font style=&quot;font-size: 16px;&quot;&gt;Reviewing Literature and Existing Products&lt;/font&gt;&lt;/b&gt;" style="rounded=0;whiteSpace=wrap;html=1;" vertex="1" parent="1">
          <mxGeometry x="315" y="160" width="220" height="60" as="geometry" />
        </mxCell>
        <mxCell id="iij6jhZhm58iWWEAvTVf-9" style="edgeStyle=orthogonalEdgeStyle;rounded=0;orthogonalLoop=1;jettySize=auto;html=1;exitX=0.5;exitY=1;exitDx=0;exitDy=0;entryX=0.5;entryY=0;entryDx=0;entryDy=0;" edge="1" parent="1" source="iij6jhZhm58iWWEAvTVf-5" target="iij6jhZhm58iWWEAvTVf-7">
          <mxGeometry relative="1" as="geometry" />
        </mxCell>
        <mxCell id="iij6jhZhm58iWWEAvTVf-5" value="&lt;b&gt;&lt;font style=&quot;font-size: 16px;&quot;&gt;Benchmark of Products&lt;/font&gt;&lt;/b&gt;" style="rounded=0;whiteSpace=wrap;html=1;" vertex="1" parent="1">
          <mxGeometry x="315" y="270" width="220" height="60" as="geometry" />
        </mxCell>
        <mxCell id="iij6jhZhm58iWWEAvTVf-12" style="edgeStyle=orthogonalEdgeStyle;rounded=0;orthogonalLoop=1;jettySize=auto;html=1;exitX=0.25;exitY=1;exitDx=0;exitDy=0;" edge="1" parent="1" source="iij6jhZhm58iWWEAvTVf-7" target="iij6jhZhm58iWWEAvTVf-10">
          <mxGeometry relative="1" as="geometry" />
        </mxCell>
        <mxCell id="iij6jhZhm58iWWEAvTVf-13" style="edgeStyle=orthogonalEdgeStyle;rounded=0;orthogonalLoop=1;jettySize=auto;html=1;exitX=0.75;exitY=1;exitDx=0;exitDy=0;" edge="1" parent="1" source="iij6jhZhm58iWWEAvTVf-7" target="iij6jhZhm58iWWEAvTVf-11">
          <mxGeometry relative="1" as="geometry" />
        </mxCell>
        <mxCell id="iij6jhZhm58iWWEAvTVf-7" value="&lt;p style=&quot;line-height: 120%; font-size: 16px;&quot;&gt;&lt;b&gt;Features List&lt;/b&gt;&lt;br&gt;&lt;/p&gt;" style="rounded=0;whiteSpace=wrap;html=1;" vertex="1" parent="1">
          <mxGeometry x="315" y="380" width="220" height="60" as="geometry" />
        </mxCell>
        <mxCell id="iij6jhZhm58iWWEAvTVf-10" value="&lt;p style=&quot;line-height: 120%;&quot;&gt;&lt;b&gt;&lt;font style=&quot;font-size: 16px;&quot;&gt;Functional&amp;nbsp;&lt;/font&gt;&lt;/b&gt;&lt;br&gt;&lt;/p&gt;" style="rounded=0;whiteSpace=wrap;html=1;" vertex="1" parent="1">
          <mxGeometry x="140" y="490" width="220" height="60" as="geometry" />
        </mxCell>
        <mxCell id="iij6jhZhm58iWWEAvTVf-11" value="&lt;p style=&quot;line-height: 120%;&quot;&gt;&lt;b&gt;&lt;font style=&quot;font-size: 15px;&quot;&gt;Non-Functional&amp;nbsp;&lt;/font&gt;&lt;/b&gt;&lt;br&gt;&lt;/p&gt;" style="rounded=0;whiteSpace=wrap;html=1;" vertex="1" parent="1">
          <mxGeometry x="500" y="490" width="220" height="60" as="geometry" />
        </mxCell>
      </root>
    </mxGraphModel>
  </diagram>
</mxfile>
